Coordinates
version=1
nRows=29
nColumns=22
inDegrees=yes

Units are S.I. units (second, meters, Newtons, ...)
If the header above contains a line with 'inDegrees', this indicates whether rotational values are in degrees (yes) or radians (no).

endheader
time	pelvis_tilt	pelvis_list	pelvis_rotation	pelvis_tx	pelvis_ty	pelvis_tz	hip_flexion_r	hip_adduction_r	hip_rotation_r	knee_angle_r	ankle_angle_r	subtalar_angle_r	hip_flexion_l	hip_adduction_l	hip_rotation_l	knee_angle_l	ankle_angle_l	subtalar_angle_l	lumbar_extension	lumbar_bending	lumbar_rotation
      3.85000000	     -4.12849578	      1.40298248	    -87.73539893	      0.03447564	      0.93008133	      1.03809294	     -2.58454385	      8.93718126	     15.43301556	    -25.23312289	     18.75446905	     -5.43838943	     28.99521411	     -4.99202866	      8.48096818	    -20.60431688	      4.21478638	      2.93452651	     -4.32647116	      0.65198381	      5.92431596
      3.86000000	     -3.90930151	      1.57853933	    -87.71088604	      0.03761053	      0.93046856	      1.04483728	     -2.25691144	      8.66349699	     15.32795467	    -26.26695970	     18.34269334	     -5.15209950	     28.98493869	     -4.51843594	      8.53923088	    -21.00239339	      3.40803982	      2.89016064	     -4.14757582	      0.40087552	      5.74218020
      3.87000000	     -3.73947989	      1.76023575	    -87.69180678	      0.04071710	      0.93096902	      1.05152696	     -1.85096916	      8.45063772	     15.15389476	    -27.38713423	     17.75163692	     -4.67479044	     28.99275794	     -4.12712932	      8.50288573	    -21.42124724	      2.72806348	      2.82385079	     -3.96128723	      0.20894270	      5.59637854
      3.88000000	     -3.55516102	      1.88014367	    -87.70359206	      0.04377137	      0.93166853	      1.05816317	     -1.43172873	      8.22796024	     14.89448436	    -28.61373656	     17.10205021	     -4.35647672	     28.87970890	     -3.77059022	      8.36540571	    -21.76015727	      2.16765401	      2.91683972	     -3.85356942	      0.00518303	      5.49006939
      3.89000000	     -3.39990351	      1.98954081	    -87.73971833	      0.04675713	      0.93245150	      1.06472732	     -0.95349348	      8.03727292	     14.57757814	    -29.91759225	     16.30313393	     -3.97064729	     28.73863316	     -3.48284866	      8.12890548	    -22.06759526	      1.73288595	      3.01111053	     -3.75952457	     -0.16200788	      5.41089865
      3.90000000	     -3.29403441	      2.08178103	    -87.80820143	      0.04968589	      0.93328048	      1.07120090	     -0.42037405	      7.88602383	     14.19068808	    -31.29064457	     15.39987412	     -3.35783526	     28.57098990	     -3.27704638	      7.81678855	    -22.35746240	      1.47044842	      3.06103107	     -3.68647385	     -0.25799598	      5.33746913
      3.91000000	     -3.18048498	      2.12209862	    -87.91732020	      0.05253438	      0.93421731	      1.07759332	      0.11225835	      7.71310792	     13.75889525	    -32.71097460	     14.40998736	     -2.84630786	     28.30524369	     -3.08792341	      7.47048120	    -22.57944503	      1.25707771	      3.05628088	     -3.67796529	     -0.35810084	      5.30960503
      3.92000000	     -3.07551303	      2.13008452	    -88.06489369	      0.05528357	      0.93520952	      1.08389397	      0.65986723	      7.53223140	     13.29882161	    -34.16301084	     13.33161998	     -2.40921268	     27.97402238	     -2.92082728	      7.12127265	    -22.74779400	      1.08506406	      2.98702735	     -3.70665552	     -0.44262938	      5.30919343
      3.93000000	     -3.02841025	      2.12575766	    -88.21593363	      0.05798936	      0.93616245	      1.09010322	      1.24184779	      7.38205832	     12.77311333	    -35.63426530	     12.22205743	     -1.61194260	     27.64533853	     -2.80482127	      6.77458545	    -22.92700565	      1.04776766	      2.70022041	     -3.74394538	     -0.44760423	      5.27559385
      3.94000000	     -2.98267241	      2.09069374	    -88.39206085	      0.06060067	      0.93713436	      1.09621474	      1.82927499	      7.21104317	     12.24181095	    -37.12017446	     11.06712621	     -0.80805113	     27.26991485	     -2.68554264	      6.46416087	    -23.07820404	      1.01637947	      2.35630168	     -3.81401939	     -0.44725357	      5.25979092
      3.95000000	     -2.96059794	      2.05008834	    -88.58027440	      0.06311907	      0.93805040	      1.10223193	      2.45151832	      7.03882852	     11.69112914	    -38.62363302	      9.93215056	      0.12038724	     26.89130954	     -2.58250137	      6.18612925	    -23.22209887	      1.01010159	      1.94160107	     -3.88274629	     -0.41515197	      5.22196067
      3.96000000	     -2.94795420	      1.99057425	    -88.76140546	      0.06559014	      0.93890261	      1.10814010	      3.09199197	      6.85265698	     11.13255113	    -40.14443319	      8.84661212	      1.30981078	     26.51924593	     -2.47038018	      5.94978142	    -23.40069107	      1.06118679	      1.45307177	     -3.96897494	     -0.36548922	      5.15401118
      3.97000000	     -2.93681766	      1.91018684	    -88.94629426	      0.06798106	      0.93970669	      1.11395498	      3.74629824	      6.64589510	     10.57652259	    -41.67941062	      7.85209809	      2.70634788	     26.13189460	     -2.35078883	      5.75542554	    -23.58542079	      1.16007739	      0.96931134	     -4.07179501	     -0.31227250	      5.07130286
      3.98000000	     -2.90953820	      1.86983797	    -89.11997788	      0.07034071	      0.94032528	      1.11963328	      4.49987565	      6.38793968	      9.97372967	    -43.25729690	      7.04562358	      4.13743483	     25.82442245	     -2.20453627	      5.55311708	    -23.81575775	      1.27722856	      0.46769236	     -4.12340390	     -0.27193947	      4.94923296
      3.99000000	     -2.86320661	      1.79684506	    -89.29857673	      0.07263603	      0.94091664	      1.12521257	      5.24669562	      6.09379035	      9.39867779	    -44.83008981	      6.42398391	      5.64681742	     25.48144275	     -2.03352287	      5.38911388	    -24.04598881	      1.46446049	      0.00105266	     -4.20792209	     -0.25129082	      4.81982998
      4.00000000	     -2.79142432	      1.73214868	    -89.48163085	      0.07488105	      0.94141497	      1.13067288	      6.04082673	      5.74263250	      8.80453134	    -46.40043117	      6.03980326	      7.01886280	     25.15197443	     -1.83760151	      5.22423961	    -24.27711044	      1.69121273	     -0.42831086	     -4.27951743	     -0.25612570	      4.68578738
      4.01000000	     -2.68659893	      1.67101051	    -89.67000800	      0.07707195	      0.94183542	      1.13600368	      6.86801644	      5.33686115	      8.22019791	    -47.94264803	      5.90155893	      8.14540673	     24.83739854	     -1.61100134	      5.04425319	    -24.51993350	      1.95890080	     -0.82373681	     -4.34561052	     -0.29659956	      4.54047967
      4.02000000	     -2.55457127	      1.60383717	    -89.87132870	      0.07917513	      0.94222110	      1.14119667	      7.70837611	      4.89403883	      7.67090132	    -49.42631816	      5.97917430	      8.95677667	     24.52491702	     -1.36685934	      4.83931350	    -24.77001303	      2.24607883	     -1.17202379	     -4.42157353	     -0.36875032	      4.38762637
      4.03000000	     -2.42049603	      1.51904533	    -90.08992671	      0.08117295	      0.94263891	      1.14629093	      8.53019498	      4.44438275	      7.16003391	    -50.80083536	      6.22460609	      9.52269535	     24.17213656	     -1.13226161	      4.63480144	    -24.97813741	      2.57724250	     -1.49091357	     -4.51286886	     -0.44615612	      4.25629030
      4.04000000	     -2.27577967	      1.39825161	    -90.32639366	      0.08305993	      0.94313653	      1.15127743	      9.30066413	      3.99124003	      6.70828769	    -52.03969935	      6.62994674	      9.67047707	     23.76036296	     -0.89610506	      4.44056353	    -25.14655769	      2.93814214	     -1.69560020	     -4.64610460	     -0.54127729	      4.14216566
      4.05000000	     -2.16415623	      1.29422484	    -90.56879485	      0.08483243	      0.94363538	      1.15611740	     10.08277561	      3.58528741	      6.30729114	    -53.13473027	      7.11696156	      9.85463332	     23.38513089	     -0.71242269	      4.19239984	    -25.32400278	      3.25357593	     -1.98335536	     -4.76208098	     -0.59931630	      4.00641858
      4.06000000	     -2.07472871	      1.15127913	    -90.81719926	      0.08650781	      0.94426416	      1.16086872	     10.78404286	      3.22359835	      5.97089055	    -54.03844688	      7.71779157	      9.82529367	     22.93346254	     -0.55072804	      4.00029723	    -25.43753661	      3.61172104	     -2.18076980	     -4.92032317	     -0.63682738	      3.88355641
      4.07000000	     -2.00334710	      1.00029459	    -91.06614196	      0.08808639	      0.94496496	      1.16550239	     11.44910885	      2.89313030	      5.67376717	    -54.76064379	      8.35243751	      9.69541936	     22.46700298	     -0.41756384	      3.78446327	    -25.52125955	      3.91814896	     -2.39272431	     -5.08748244	     -0.65769913	      3.74136943
      4.08000000	     -1.95833287	      0.83805710	    -91.30588127	      0.08960240	      0.94575065	      1.17003014	     12.06157889	      2.59733441	      5.40320107	    -55.28119397	      9.02171131	      9.44258062	     21.96658477	     -0.31006676	      3.59225765	    -25.55034203	      4.20218405	     -2.59030597	     -5.26504251	     -0.64960539	      3.58469939
      4.09000000	     -1.92554044	      0.64666399	    -91.53069410	      0.09105230	      0.94663546	      1.17444714	     12.60258085	      2.31651558	      5.13960240	    -55.60130378	      9.64532321	      8.90367514	     21.42854316	     -0.21609085	      3.38686765	    -25.54945927	      4.43456610	     -2.83308429	     -5.47942202	     -0.63069810	      3.37673264
      4.10000000	     -1.92204256	      0.49135994	    -91.73163136	      0.09245399	      0.94751367	      1.17876761	     13.13364015	      2.06367619	      4.87186988	    -55.71793490	     10.31509459	      8.37067915	     20.89869885	     -0.13867648	      3.27311650	    -25.48134136	      4.66138274	     -3.00270388	     -5.64567714	     -0.57930063	      3.16312761
      4.11000000	     -1.94161625	      0.32076215	    -91.90047992	      0.09382825	      0.94842067	      1.18296650	     13.60709791	      1.82580004	      4.57368562	    -55.64420555	     10.87808646	      7.52064246	     20.37520650	     -0.08876651	      3.11024689	    -25.42846786	      4.87875089	     -3.22557566	     -5.83605063	     -0.49828938	      2.86510360
      4.12000000	     -1.96722343	      0.19436281	    -92.04606797	      0.09517313	      0.94927186	      1.18708086	     14.08281055	      1.58477674	      4.25600577	    -55.38935862	     11.46214433	      6.71522629	     19.88336034	     -0.03700598	      2.99900797	    -25.33431263	      5.07498220	     -3.41011557	     -5.97090407	     -0.40749852	      2.56586657
      4.13000000	     -1.98772916	      0.08356962	    -92.16094974	      0.09650414	      0.95009499	      1.19112083	     14.53011679	      1.32931883	      3.91458575	    -54.96437810	     12.02438883	      5.90931190	     19.40437250	      0.02581621	      2.90762184	    -25.21710798	      5.23991939	     -3.58367890	     -6.08406587	     -0.31967767	      2.21868996
